<svg width="1600" height="900" viewBox="0 0 1600 900" fill="none" xmlns="http://www.w3.org/2000/svg">
  <rect width="1600" height="900" fill="#050A1D"/>
  <rect width="1600" height="900" fill="url(#paint0_radial)"/>
  <rect x="180" y="150" width="360" height="520" rx="24" fill="#0A1435" fill-opacity="0.8" stroke="#4ECFFF" stroke-opacity="0.35"/>
  <rect x="620" y="150" width="360" height="520" rx="24" fill="#0A1435" fill-opacity="0.72" stroke="#8F6BFF" stroke-opacity="0.35"/>
  <rect x="1060" y="150" width="360" height="520" rx="24" fill="#0A1435" fill-opacity="0.68" stroke="#4ECFFF" stroke-opacity="0.35"/>
  <path d="M260 520C320 470 400 430 480 410" stroke="#4ECFFF" stroke-width="3"/>
  <path d="M700 350C760 280 860 240 920 250" stroke="#8F6BFF" stroke-width="3"/>
  <path d="M1130 520C1180 420 1260 360 1330 330" stroke="#4ECFFF" stroke-width="3"/>
  <circle cx="800" cy="400" r="112" fill="url(#paint1_radial)"/>
  <circle cx="800" cy="400" r="160" stroke="#8F6BFF" stroke-opacity="0.25"/>
  <circle cx="800" cy="400" r="220" stroke="#4ECFFF" stroke-opacity="0.12"/>
  <g opacity="0.7" fill="white">
    <circle cx="240" cy="100" r="2"/>
    <circle cx="380" cy="70" r="1.5"/>
    <circle cx="540" cy="120" r="2"/>
    <circle cx="760" cy="80" r="1.5"/>
    <circle cx="1260" cy="100" r="2"/>
    <circle cx="1460" cy="130" r="1.5"/>
  </g>
  <defs>
    <radialGradient id="paint0_radial" cx="0" cy="0" r="1" gradientUnits="userSpaceOnUse" gradientTransform="translate(800 460) rotate(90) scale(560 1000)">
      <stop stop-color="#10245B"/>
      <stop offset="0.48" stop-color="#08153A"/>
      <stop offset="1" stop-color="#030817"/>
    </radialGradient>
    <radialGradient id="paint1_radial" cx="0" cy="0" r="1" gradientUnits="userSpaceOnUse" gradientTransform="translate(800 400) rotate(90) scale(112)">
      <stop stop-color="#F7FCFF"/>
      <stop offset="0.25" stop-color="#7AE0FF"/>
      <stop offset="0.7" stop-color="#8F6BFF"/>
      <stop offset="1" stop-color="#0E1D4B"/>
    </radialGradient>
  </defs>
</svg>
