<svg width="1600" height="900" viewBox="0 0 1600 900" fill="none" xmlns="http://www.w3.org/2000/svg">
  <rect width="1600" height="900" fill="#040A1C"/>
  <rect width="1600" height="900" fill="url(#paint0_radial)"/>
  <path d="M0 680H1600" stroke="#4ECFFF" stroke-opacity="0.12"/>
  <path d="M0 760H1600" stroke="#4ECFFF" stroke-opacity="0.08"/>
  <path d="M210 900V440" stroke="#4ECFFF" stroke-opacity="0.08"/>
  <path d="M450 900V360" stroke="#4ECFFF" stroke-opacity="0.08"/>
  <path d="M710 900V290" stroke="#4ECFFF" stroke-opacity="0.08"/>
  <path d="M960 900V290" stroke="#4ECFFF" stroke-opacity="0.08"/>
  <path d="M1200 900V360" stroke="#4ECFFF" stroke-opacity="0.08"/>
  <path d="M1410 900V440" stroke="#4ECFFF" stroke-opacity="0.08"/>
  <circle cx="1200" cy="220" r="186" fill="url(#paint1_radial)"/>
  <circle cx="1200" cy="220" r="214" stroke="#4ECFFF" stroke-opacity="0.18"/>
  <circle cx="1200" cy="220" r="248" stroke="#8F6BFF" stroke-opacity="0.16"/>
  <g fill="white" opacity="0.7">
    <circle cx="180" cy="160" r="2"/>
    <circle cx="350" cy="80" r="1.5"/>
    <circle cx="500" cy="220" r="2"/>
    <circle cx="820" cy="120" r="1.5"/>
    <circle cx="980" cy="160" r="2"/>
    <circle cx="1420" cy="120" r="1.5"/>
  </g>
  <defs>
    <radialGradient id="paint0_radial" cx="0" cy="0" r="1" gradientUnits="userSpaceOnUse" gradientTransform="translate(800 470) rotate(90) scale(560 980)">
      <stop stop-color="#10245B"/>
      <stop offset="0.48" stop-color="#08153A"/>
      <stop offset="1" stop-color="#030817"/>
    </radialGradient>
    <radialGradient id="paint1_radial" cx="0" cy="0" r="1" gradientUnits="userSpaceOnUse" gradientTransform="translate(1200 220) rotate(90) scale(186)">
      <stop stop-color="#F5FBFF"/>
      <stop offset="0.22" stop-color="#7AE0FF"/>
      <stop offset="0.6" stop-color="#8F6BFF"/>
      <stop offset="1" stop-color="#0E1D4B"/>
    </radialGradient>
  </defs>
</svg>
