<svg width="1600" height="900" viewBox="0 0 1600 900" fill="none" xmlns="http://www.w3.org/2000/svg">
  <rect width="1600" height="900" fill="#04091C"/>
  <rect width="1600" height="900" fill="url(#paint0_radial)"/>
  <g stroke="#4ECFFF" stroke-opacity="0.18">
    <path d="M0 780H1600"/>
    <path d="M0 720H1600"/>
    <path d="M210 900V420"/>
    <path d="M430 900V320"/>
    <path d="M690 900V260"/>
    <path d="M930 900V260"/>
    <path d="M1170 900V320"/>
    <path d="M1390 900V420"/>
  </g>
  <rect x="120" y="290" width="280" height="280" rx="28" fill="#0A1435" fill-opacity="0.82" stroke="#4ECFFF" stroke-opacity="0.42"/>
  <rect x="460" y="290" width="280" height="280" rx="28" fill="#0A1435" fill-opacity="0.82" stroke="#8F6BFF" stroke-opacity="0.42"/>
  <rect x="800" y="290" width="280" height="280" rx="28" fill="#0A1435" fill-opacity="0.82" stroke="#4ECFFF" stroke-opacity="0.42"/>
  <rect x="1140" y="290" width="280" height="280" rx="28" fill="#0A1435" fill-opacity="0.82" stroke="#8F6BFF" stroke-opacity="0.42"/>
  <circle cx="260" cy="430" r="72" fill="url(#paint1_radial)"/>
  <circle cx="600" cy="430" r="72" fill="url(#paint2_radial)"/>
  <circle cx="940" cy="430" r="72" fill="url(#paint1_radial)"/>
  <circle cx="1280" cy="430" r="72" fill="url(#paint2_radial)"/>
  <defs>
    <radialGradient id="paint0_radial" cx="0" cy="0" r="1" gradientUnits="userSpaceOnUse" gradientTransform="translate(800 470) rotate(90) scale(540 980)">
      <stop stop-color="#10245B"/>
      <stop offset="0.45" stop-color="#08153A"/>
      <stop offset="1" stop-color="#030817"/>
    </radialGradient>
    <radialGradient id="paint1_radial" cx="0" cy="0" r="1" gradientUnits="userSpaceOnUse" gradientTransform="translate(260 430) rotate(90) scale(72)">
      <stop stop-color="#F7FCFF"/>
      <stop offset="0.26" stop-color="#7AE0FF"/>
      <stop offset="1" stop-color="#0D1A45"/>
    </radialGradient>
    <radialGradient id="paint2_radial" cx="0" cy="0" r="1" gradientUnits="userSpaceOnUse" gradientTransform="translate(600 430) rotate(90) scale(72)">
      <stop stop-color="#F7FCFF"/>
      <stop offset="0.26" stop-color="#A293FF"/>
      <stop offset="1" stop-color="#0D1A45"/>
    </radialGradient>
  </defs>
</svg>
